<?xml version="1.0" encoding="UTF-8" standalone="no"?>
<!DOCTYPE svg PUBLIC "-//W3C//DTD SVG 1.1//EN"
 "http://www.w3.org/Graphics/SVG/1.1/DTD/svg11.dtd">
<!-- Generated by graphviz version 2.43.0 (0)
 -->
<!-- Title: structs Pages: 1 -->
<svg width="284pt" height="160pt"
 viewBox="0.00 0.00 283.50 160.00" xmlns="http://www.w3.org/2000/svg" xmlns:xlink="http://www.w3.org/1999/xlink">
<g id="graph0" class="graph" transform="scale(1 1) rotate(0) translate(4 156)">
<title>structs</title>
<polygon fill="white" stroke="transparent" points="-4,4 -4,-156 279.5,-156 279.5,4 -4,4"/>
<!-- struct1 -->
<g id="node1" class="node">
<title>struct1</title>
<polygon fill="none" stroke="black" points="112.5,-115.5 112.5,-151.5 275.5,-151.5 275.5,-115.5 112.5,-115.5"/>
<text text-anchor="middle" x="133" y="-129.8" font-family="Times,serif" font-size="14.00">left</text>
<polyline fill="none" stroke="black" points="153.5,-115.5 153.5,-151.5 "/>
<text text-anchor="middle" x="188.5" y="-129.8" font-family="Times,serif" font-size="14.00">mid dle</text>
<polyline fill="none" stroke="black" points="223.5,-115.5 223.5,-151.5 "/>
<text text-anchor="middle" x="249.5" y="-129.8" font-family="Times,serif" font-size="14.00">right</text>
</g>
<!-- struct2 -->
<g id="node2" class="node">
<title>struct2</title>
<path fill="none" stroke="black" d="M214,-0.5C214,-0.5 244,-0.5 244,-0.5 250,-0.5 256,-6.5 256,-12.5 256,-12.5 256,-66.5 256,-66.5 256,-72.5 250,-78.5 244,-78.5 244,-78.5 214,-78.5 214,-78.5 208,-78.5 202,-72.5 202,-66.5 202,-66.5 202,-12.5 202,-12.5 202,-6.5 208,-0.5 214,-0.5"/>
<text text-anchor="middle" x="229" y="-63.3" font-family="Times,serif" font-size="14.00">one</text>
<polyline fill="none" stroke="black" points="202,-55.5 256,-55.5 "/>
<text text-anchor="middle" x="229" y="-40.3" font-family="Times,serif" font-size="14.00">two</text>
</g>
<!-- struct1&#45;&gt;struct2 -->
<g id="edge1" class="edge">
<title>struct1:f1&#45;&gt;struct2:f0</title>
<path fill="none" stroke="black" d="M188,-115C188,-94.92 216.12,-100.04 225.78,-88.62"/>
<polygon fill="black" stroke="black" points="229.15,-89.59 229,-79 222.51,-87.37 229.15,-89.59"/>
</g>
<!-- struct3 -->
<g id="node3" class="node">
<title>struct3</title>
<polygon fill="none" stroke="black" points="0,-5 0,-74 184,-74 184,-5 0,-5"/>
<text text-anchor="middle" x="28.5" y="-43.3" font-family="Times,serif" font-size="14.00">hello</text>
<text text-anchor="middle" x="28.5" y="-28.3" font-family="Times,serif" font-size="14.00">world</text>
<polyline fill="none" stroke="black" points="57,-5 57,-74 "/>
<text text-anchor="middle" x="94.5" y="-58.8" font-family="Times,serif" font-size="14.00">b</text>
<polyline fill="none" stroke="black" points="57,-51 132,-51 "/>
<text text-anchor="middle" x="69" y="-35.8" font-family="Times,serif" font-size="14.00">c</text>
<polyline fill="none" stroke="black" points="81,-28 81,-51 "/>
<text text-anchor="middle" x="94" y="-35.8" font-family="Times,serif" font-size="14.00">d</text>
<polyline fill="none" stroke="black" points="107,-28 107,-51 "/>
<text text-anchor="middle" x="119.5" y="-35.8" font-family="Times,serif" font-size="14.00">e</text>
<polyline fill="none" stroke="black" points="57,-28 132,-28 "/>
<text text-anchor="middle" x="94.5" y="-12.8" font-family="Times,serif" font-size="14.00">f</text>
<polyline fill="none" stroke="black" points="132,-5 132,-74 "/>
<text text-anchor="middle" x="145" y="-35.8" font-family="Times,serif" font-size="14.00">g</text>
<polyline fill="none" stroke="black" points="158,-5 158,-74 "/>
<text text-anchor="middle" x="171" y="-35.8" font-family="Times,serif" font-size="14.00">h</text>
</g>
<!-- struct1&#45;&gt;struct3 -->
<g id="edge2" class="edge">
<title>struct1:f0&#45;&gt;struct3:f1</title>
<path fill="none" stroke="black" d="M133,-115C133,-104.04 129.62,-93.15 124.8,-83.19"/>
<polygon fill="black" stroke="black" points="127.85,-81.47 120.03,-74.33 121.69,-84.79 127.85,-81.47"/>
</g>
</g>
</svg>
